<svg width="3262" height="313" viewBox="0 0 3262 313" fill="none" xmlns="http://www.w3.org/2000/svg">
<path d="M183.8 13.9C178.4 13.9 173.7 15.7 169.7 19.3C165.9 22.7 162.5 27.3 159.5 33.1C156.5 38.9 153.7 45.7 151.1 53.5C148.7 61.1 146.2 69.1 143.6 77.5L140 89.2H198.5C200.9 89.2 203.5 88.8 206.3 88C209.1 87 211.5 85.7 213.5 84.1L216.8 85.6L174.8 214.6C174.2 216.8 173.5 219.4 172.7 222.4C171.9 225.4 171.5 227.9 171.5 229.9C171.5 232.1 171.9 233.9 172.7 235.3C173.5 236.7 175.1 237.4 177.5 237.4C180.5 237.4 183.6 236.2 186.8 233.8C190 231.4 193.2 228.2 196.4 224.2C199.6 220.2 202.6 215.6 205.4 210.4C208.4 205 211.2 199.5 213.8 193.9H220.1C217.5 200.3 214.4 206.8 210.8 213.4C207.2 219.8 203.2 225.7 198.8 231.1C194.6 236.3 190.1 240.6 185.3 244C180.5 247.2 175.5 248.8 170.3 248.8C164.5 248.8 160.4 247.4 158 244.6C155.6 241.6 154.4 237.8 154.4 233.2C154.4 230.4 154.8 227.4 155.6 224.2C156.4 221 157.3 217.7 158.3 214.3L196.1 97H137.6L100.1 221.5C96.3 234.1 91.6 246 86 257.2C80.6 268.4 74.4 278.1 67.4 286.3C60.2 294.5 52.4 301 44 305.8C35.4 310.6 26 313 15.8 313C9.4 313 5.2 312.1 3.2 310.3C1.2 308.5 0.199995 306.3 0.199995 303.7C0.199995 299.9 1.7 296.7 4.7 294.1C7.7 291.7 11.3 290.5 15.5 290.5C17.7 290.5 19.7 290.8 21.5 291.4C23.3 292.2 25.1 293 26.9 293.8C28.5 294.6 30.2 295.3 32 295.9C33.8 296.7 35.8 297.1 38 297.1C42.4 297.1 46.5 295.7 50.3 292.9C53.9 290.3 57.4 286 60.8 280C64 274.2 67.3 266.6 70.7 257.2C74.1 247.8 77.9 236.4 82.1 223L120.2 97H92.6L95 89.2H122.6L126.2 77.2C129.8 64.8 133.8 54.1 138.2 45.1C142.8 35.9 148 28.2 153.8 22C159.8 15.8 166.6 11.2 174.2 8.19998C181.8 5.19998 190.7 3.69999 200.9 3.69999C212.5 3.69999 220.5 5.09999 224.9 7.89998C229.3 10.5 231.5 13.5 231.5 16.9C231.5 19.3 230.5 21.9 228.5 24.7C226.7 27.3 223.6 28.6 219.2 28.6C216.2 28.6 213.4 27.9 210.8 26.5C208.2 24.9 205.5 23.2 202.7 21.4C200.1 19.4 197.3 17.7 194.3 16.3C191.3 14.7 187.8 13.9 183.8 13.9ZM228.645 247L270.945 124C272.345 120 273.645 115.9 274.845 111.7C276.245 107.5 276.945 104.5 276.945 102.7C276.945 100.5 276.545 99 275.745 98.2C274.945 97.4 273.845 97 272.445 97C269.845 97 266.945 98.1 263.745 100.3C260.745 102.5 257.645 105.4 254.445 109C251.445 112.6 248.345 116.6 245.145 121C242.145 125.4 239.345 129.9 236.745 134.5H230.445C233.445 128.5 236.945 122.6 240.945 116.8C244.945 111 249.145 105.8 253.545 101.2C258.145 96.6 262.845 92.9 267.645 90.1C272.445 87.3 277.245 85.9 282.045 85.9C286.045 85.9 288.945 87.3 290.745 90.1C292.745 92.7 293.745 95.8 293.745 99.4C293.745 102.6 293.045 106.2 291.645 110.2C290.445 114.2 288.945 118.8 287.145 124L267.345 178.6H269.745C277.945 161.2 285.545 146.6 292.545 134.8C299.745 122.8 306.445 113.2 312.645 106C319.045 98.6 324.945 93.3 330.345 90.1C335.745 86.9 340.945 85.3 345.945 85.3C351.545 85.3 355.745 87 358.545 90.4C361.545 93.6 363.045 98.1 363.045 103.9C363.045 110.1 361.645 117.6 358.845 126.4C356.045 135 352.545 144.3 348.345 154.3C344.345 164.1 339.945 174.3 335.145 184.9C330.345 195.3 325.945 205.3 321.945 214.9C321.145 217.1 320.245 219.7 319.245 222.7C318.245 225.5 317.745 227.9 317.745 229.9C317.745 232.1 318.145 233.9 318.945 235.3C319.745 236.7 321.345 237.4 323.745 237.4C326.745 237.4 329.845 236.2 333.045 233.8C336.245 231.4 339.445 228.2 342.645 224.2C345.845 220.2 348.845 215.6 351.645 210.4C354.645 205 357.445 199.5 360.045 193.9H366.345C363.745 200.3 360.645 206.8 357.045 213.4C353.445 219.8 349.445 225.7 345.045 231.1C340.845 236.3 336.345 240.6 331.545 244C326.745 247.2 321.745 248.8 316.545 248.8C310.745 248.8 306.645 247.4 304.245 244.6C301.845 241.6 300.645 237.8 300.645 233.2C300.645 230.4 301.145 227.5 302.145 224.5C303.345 221.3 304.645 218 306.045 214.6C310.245 203.8 314.545 193.1 318.945 182.5C323.545 171.7 327.745 161.7 331.545 152.5C335.345 143.1 338.445 134.7 340.845 127.3C343.245 119.9 344.445 114.2 344.445 110.2C344.445 102.8 342.045 99.1 337.245 99.1C333.645 99.1 328.945 101.6 323.145 106.6C317.345 111.4 310.545 119.6 302.745 131.2C294.945 142.6 286.245 157.8 276.645 176.8C267.045 195.6 256.745 219 245.745 247H228.645ZM409.796 237.7C414.596 237.7 419.296 236.4 423.896 233.8C428.496 231 432.896 227.3 437.096 222.7C441.496 217.9 445.696 212.2 449.696 205.6C453.896 199 457.796 191.8 461.396 184H467.396C463.596 193.8 459.296 202.8 454.496 211C449.696 219.2 444.496 226.3 438.896 232.3C433.496 238.1 427.696 242.7 421.496 246.1C415.496 249.3 409.196 250.9 402.596 250.9C392.596 250.9 384.796 247.3 379.196 240.1C373.596 232.9 370.796 222.9 370.796 210.1C370.796 202.1 371.896 193.5 374.096 184.3C376.296 174.9 379.296 165.6 383.096 156.4C386.896 147.2 391.396 138.3 396.596 129.7C401.796 121.1 407.396 113.5 413.396 106.9C419.596 100.3 426.096 95.1 432.896 91.3C439.696 87.3 446.596 85.3 453.596 85.3C460.596 85.3 466.096 87.5 470.096 91.9C474.296 96.3 476.396 102 476.396 109C476.396 116.8 473.996 124.6 469.196 132.4C464.596 140 458.396 147.1 450.596 153.7C442.796 160.1 433.896 165.6 423.896 170.2C413.896 174.8 403.596 178 392.996 179.8C390.196 191 388.796 200.9 388.796 209.5C388.796 218.7 390.696 225.7 394.496 230.5C398.296 235.3 403.396 237.7 409.796 237.7ZM450.896 94.6C445.096 94.6 439.396 96.9 433.796 101.5C428.396 105.9 423.196 111.8 418.196 119.2C413.396 126.4 408.996 134.6 404.996 143.8C400.996 153 397.696 162.2 395.096 171.4C403.896 169.4 412.296 166.5 420.296 162.7C428.296 158.7 435.396 154 441.596 148.6C447.796 143 452.696 136.9 456.296 130.3C459.896 123.5 461.696 116.4 461.696 109C461.696 104.6 460.896 101.1 459.296 98.5C457.896 95.9 455.096 94.6 450.896 94.6ZM555.111 212.8C554.311 215.4 553.511 218.2 552.711 221.2C551.911 224.2 551.511 226.8 551.511 229C551.511 231.4 551.911 233.3 552.711 234.7C553.511 236.1 555.211 236.8 557.811 236.8C561.411 236.8 565.111 235.5 568.911 232.9C572.911 230.3 576.811 226.8 580.611 222.4C584.611 218 588.411 212.9 592.011 207.1C595.611 201.3 598.911 195.2 601.911 188.8H608.511C605.511 196.2 601.811 203.5 597.411 210.7C593.011 217.9 588.211 224.3 583.011 229.9C578.011 235.5 572.611 240.1 566.811 243.7C561.211 247.1 555.511 248.8 549.711 248.8C543.911 248.8 539.811 247.4 537.411 244.6C535.211 241.6 534.111 237.7 534.111 232.9C534.111 230.1 534.511 227 535.311 223.6C536.311 220 537.311 216.6 538.311 213.4L578.211 97H554.511L556.911 91.3C563.311 91.1 568.811 90.2 573.411 88.6C578.011 87 582.011 84.6 585.411 81.4C589.011 78.2 592.211 74.2 595.011 69.4C598.011 64.6 601.011 59 604.011 52.6H610.911L597.411 89.2H627.411L625.011 97H595.011L555.111 212.8ZM649.902 237.7C654.702 237.7 659.402 236.4 664.002 233.8C668.602 231 673.002 227.3 677.202 222.7C681.602 217.9 685.802 212.2 689.802 205.6C694.002 199 697.902 191.8 701.502 184H707.502C703.702 193.8 699.402 202.8 694.602 211C689.802 219.2 684.602 226.3 679.002 232.3C673.602 238.1 667.802 242.7 661.602 246.1C655.602 249.3 649.302 250.9 642.702 250.9C632.702 250.9 624.902 247.3 619.302 240.1C613.702 232.9 610.902 222.9 610.902 210.1C610.902 202.1 612.002 193.5 614.202 184.3C616.402 174.9 619.402 165.6 623.202 156.4C627.002 147.2 631.502 138.3 636.702 129.7C641.902 121.1 647.502 113.5 653.502 106.9C659.702 100.3 666.202 95.1 673.002 91.3C679.802 87.3 686.702 85.3 693.702 85.3C700.702 85.3 706.202 87.5 710.202 91.9C714.402 96.3 716.502 102 716.502 109C716.502 116.8 714.102 124.6 709.302 132.4C704.702 140 698.502 147.1 690.702 153.7C682.902 160.1 674.002 165.6 664.002 170.2C654.002 174.8 643.702 178 633.102 179.8C630.302 191 628.902 200.9 628.902 209.5C628.902 218.7 630.802 225.7 634.602 230.5C638.402 235.3 643.502 237.7 649.902 237.7ZM691.002 94.6C685.202 94.6 679.502 96.9 673.902 101.5C668.502 105.9 663.302 111.8 658.302 119.2C653.502 126.4 649.102 134.6 645.102 143.8C641.102 153 637.802 162.2 635.202 171.4C644.002 169.4 652.402 166.5 660.402 162.7C668.402 158.7 675.502 154 681.702 148.6C687.902 143 692.802 136.9 696.402 130.3C700.002 123.5 701.802 116.4 701.802 109C701.802 104.6 701.002 101.1 699.402 98.5C698.002 95.9 695.202 94.6 691.002 94.6ZM810.151 237.4C813.151 237.4 816.251 236.2 819.451 233.8C822.651 231.4 825.751 228.2 828.751 224.2C831.951 220.2 835.051 215.6 838.051 210.4C841.051 205 843.851 199.5 846.451 193.9H852.751C850.151 200.3 847.051 206.8 843.451 213.4C839.851 219.8 835.851 225.7 831.451 231.1C827.051 236.3 822.451 240.6 817.651 244C812.851 247.2 807.851 248.8 802.651 248.8C796.851 248.8 792.751 247.4 790.351 244.6C787.951 241.6 786.751 237.8 786.751 233.2C786.751 230.4 787.351 227.5 788.551 224.5C789.751 221.3 790.951 218 792.151 214.6L809.251 167.5H806.551C802.951 175.5 798.351 184.3 792.751 193.9C787.351 203.3 781.551 212.2 775.351 220.6C769.151 228.8 762.651 235.7 755.851 241.3C749.251 246.9 742.951 249.7 736.951 249.7C728.351 249.7 722.351 246.5 718.951 240.1C715.551 233.5 713.851 225.1 713.851 214.9C713.851 206.3 715.051 197.2 717.451 187.6C720.051 177.8 723.451 168.1 727.651 158.5C732.051 148.9 737.051 139.7 742.651 130.9C748.451 122.1 754.551 114.3 760.951 107.5C767.551 100.7 774.251 95.3 781.051 91.3C788.051 87.3 794.851 85.3 801.451 85.3C810.451 85.3 816.951 88.3 820.951 94.3C825.151 100.1 826.851 108 826.051 118H826.951L835.951 93.1C839.351 93.1 842.451 92.3 845.251 90.7C848.251 88.9 850.551 86.7 852.151 84.1L855.451 85.6L808.351 214.9C807.551 217.1 806.651 219.7 805.651 222.7C804.651 225.5 804.151 227.9 804.151 229.9C804.151 232.1 804.551 233.9 805.351 235.3C806.151 236.7 807.751 237.4 810.151 237.4ZM742.051 235.3C747.051 235.3 752.751 232.4 759.151 226.6C765.751 220.8 772.251 213.6 778.651 205C785.251 196.2 791.251 186.8 796.651 176.8C802.251 166.8 806.551 157.6 809.551 149.2C811.151 144.6 812.651 139.7 814.051 134.5C815.651 129.1 816.451 123.4 816.451 117.4C816.451 111 815.351 105.9 813.151 102.1C810.951 98.3 807.151 96.4 801.751 96.4C796.551 96.4 791.251 98.2 785.851 101.8C780.451 105.4 775.151 110.2 769.951 116.2C764.751 122.2 759.751 129.2 754.951 137.2C750.351 145 746.251 153.3 742.651 162.1C739.251 170.7 736.551 179.4 734.551 188.2C732.551 196.8 731.551 205 731.551 212.8C731.551 220 732.251 225.6 733.651 229.6C735.251 233.4 738.051 235.3 742.051 235.3ZM1033.77 215.2C1033.77 220.2 1033.37 225 1032.57 229.6C1031.77 234 1030.57 237.9 1028.97 241.3C1027.37 244.5 1025.17 247 1022.37 248.8C1019.57 250.8 1016.17 251.8 1012.17 251.8C1005.37 251.8 1000.07 249.1 996.273 243.7C992.673 238.3 990.873 230 990.873 218.8V206.8C986.873 221.8 981.173 233.1 973.773 240.7C966.373 248.1 957.773 251.8 947.973 251.8C942.973 251.8 938.573 250.8 934.773 248.8C930.973 247 927.773 244.6 925.173 241.6C922.573 238.4 920.573 234.7 919.173 230.5C917.973 226.3 917.373 221.8 917.373 217C917.373 207.6 919.673 199.4 924.273 192.4C928.873 185.4 934.673 179.2 941.673 173.8C948.873 168.2 956.773 163.3 965.373 159.1C974.173 154.7 982.673 150.5 990.873 146.5V129.4C990.873 116.2 988.573 107 983.973 101.8C979.573 96.6 973.373 94 965.373 94C958.973 94 953.573 95.5 949.173 98.5C944.773 101.5 942.573 105.8 942.573 111.4C942.573 115 943.273 117.8 944.673 119.8C946.073 121.8 946.773 124.4 946.773 127.6C946.773 130.8 945.873 133.4 944.073 135.4C942.473 137.2 939.973 138.1 936.573 138.1C932.573 138.1 929.473 136.6 927.273 133.6C925.273 130.4 924.273 126.4 924.273 121.6C924.273 116.4 925.373 111.5 927.573 106.9C929.773 102.3 932.873 98.3 936.873 94.9C940.873 91.5 945.573 88.8 950.973 86.8C956.373 84.8 962.173 83.8 968.373 83.8C979.573 83.8 988.873 87.4 996.273 94.6C1003.67 101.6 1007.37 113.1 1007.37 129.1V221.2C1007.37 229.4 1008.17 234.8 1009.77 237.4C1011.57 240 1013.67 241.3 1016.07 241.3C1019.27 241.3 1021.87 239.5 1023.87 235.9C1026.07 232.1 1027.27 225.2 1027.47 215.2H1033.77ZM953.073 236.5C959.873 236.5 966.673 233 973.473 226C980.473 219 986.273 207.3 990.873 190.9V155.2C984.073 158.8 977.273 162.5 970.473 166.3C963.873 170.1 957.873 174.3 952.473 178.9C947.273 183.3 942.973 188.3 939.573 193.9C936.373 199.3 934.773 205.6 934.773 212.8C934.773 219.6 936.273 225.3 939.273 229.9C942.273 234.3 946.873 236.5 953.073 236.5ZM1111.27 183.1C1111.27 194.1 1110.77 203.9 1109.77 212.5C1108.77 220.9 1106.97 228 1104.37 233.8C1101.97 239.6 1098.57 244 1094.17 247C1089.97 250.2 1084.67 251.8 1078.27 251.8C1073.27 251.8 1068.87 250.9 1065.07 249.1C1061.27 247.3 1058.07 244.3 1055.47 240.1C1052.87 235.9 1050.97 230.4 1049.77 223.6C1048.57 216.8 1047.97 208.4 1047.97 198.4V99.4H1026.37V90.7C1031.77 90.7 1036.27 89.6 1039.87 87.4C1043.67 85.2 1046.77 82.2 1049.17 78.4C1051.57 74.6 1053.37 70 1054.57 64.6C1055.97 59.2 1056.77 53.3 1056.97 46.9H1064.47V89.2H1101.07V99.4H1064.77V187.9C1064.77 195.1 1064.87 201.8 1065.07 208C1065.47 214 1066.27 219.2 1067.47 223.6C1068.67 228 1070.47 231.5 1072.87 234.1C1075.27 236.5 1078.57 237.7 1082.77 237.7C1089.97 237.7 1095.37 233.3 1098.97 224.5C1102.57 215.7 1104.37 201.9 1104.37 183.1H1111.27ZM1218.8 183.7C1216.4 207.5 1210.7 224.8 1201.7 235.6C1192.9 246.4 1182.5 251.8 1170.5 251.8C1162.7 251.8 1155.8 249.8 1149.8 245.8C1143.8 241.8 1138.7 236.2 1134.5 229C1130.3 221.8 1127.1 213.2 1124.9 203.2C1122.7 193.2 1121.6 182.3 1121.6 170.5C1121.6 158.5 1122.7 147.3 1124.9 136.9C1127.3 126.3 1130.6 117.1 1134.8 109.3C1139.2 101.5 1144.5 95.4 1150.7 91C1156.9 86.4 1163.9 84.1 1171.7 84.1C1178.9 84.1 1185.3 85.9 1190.9 89.5C1196.5 93.1 1201.2 98.2 1205 104.8C1209 111.4 1212 119.3 1214 128.5C1216 137.7 1217 147.9 1217 159.1H1139V164.8C1139 174.6 1139.8 183.9 1141.4 192.7C1143 201.3 1145.4 208.9 1148.6 215.5C1151.8 221.9 1155.6 227 1160 230.8C1164.6 234.6 1169.9 236.5 1175.9 236.5C1179.3 236.5 1182.8 235.7 1186.4 234.1C1190 232.5 1193.4 229.7 1196.6 225.7C1200 221.5 1203 216 1205.6 209.2C1208.4 202.4 1210.7 193.9 1212.5 183.7H1218.8ZM1172 94.3C1167.2 94.3 1162.9 95.8 1159.1 98.8C1155.3 101.6 1152.1 105.5 1149.5 110.5C1146.9 115.5 1144.7 121.3 1142.9 127.9C1141.3 134.5 1140.2 141.5 1139.6 148.9H1199.3C1199.3 142.1 1198.8 135.4 1197.8 128.8C1196.8 122.2 1195.2 116.4 1193 111.4C1191 106.2 1188.2 102.1 1184.6 99.1C1181.2 95.9 1177 94.3 1172 94.3ZM1263.15 218.2C1263.15 222.8 1263.35 226.6 1263.75 229.6C1264.15 232.4 1265.05 234.7 1266.45 236.5C1267.85 238.1 1269.75 239.2 1272.15 239.8C1274.75 240.4 1278.25 240.7 1282.65 240.7V247H1226.55V240.7C1230.95 240.7 1234.45 240.4 1237.05 239.8C1239.65 239.2 1241.65 238.1 1243.05 236.5C1244.45 234.7 1245.35 232.4 1245.75 229.6C1246.15 226.6 1246.35 222.8 1246.35 218.2V35.2C1246.35 29 1246.15 24.5 1245.75 21.7C1245.35 18.7 1243.95 17.2 1241.55 17.2C1239.35 17.2 1235.25 18.6 1229.25 21.4L1226.55 15.4L1259.85 0.699988L1263.15 3.99998V218.2ZM1316.98 48.4C1312.78 48.4 1309.28 47.1 1306.48 44.5C1303.68 41.7 1302.28 38.3 1302.28 34.3C1302.28 30.3 1303.68 27 1306.48 24.4C1309.28 21.6 1312.78 20.2 1316.98 20.2C1320.98 20.2 1324.38 21.6 1327.18 24.4C1329.98 27 1331.38 30.3 1331.38 34.3C1331.38 38.3 1329.98 41.7 1327.18 44.5C1324.38 47.1 1320.98 48.4 1316.98 48.4ZM1328.08 218.2C1328.08 222.8 1328.28 226.6 1328.68 229.6C1329.08 232.4 1329.98 234.7 1331.38 236.5C1332.78 238.1 1334.78 239.2 1337.38 239.8C1339.98 240.4 1343.48 240.7 1347.88 240.7V247H1291.78V240.7C1296.18 240.7 1299.68 240.4 1302.28 239.8C1304.88 239.2 1306.88 238.1 1308.28 236.5C1309.68 234.7 1310.58 232.4 1310.98 229.6C1311.38 226.6 1311.58 222.8 1311.58 218.2V118.3C1311.58 111.7 1311.28 107 1310.68 104.2C1310.28 101.2 1308.68 99.7 1305.88 99.7C1303.28 99.7 1299.58 100.7 1294.78 102.7L1292.38 96.7L1324.48 84.1L1328.08 87.4V218.2ZM1455.1 183.7C1452.7 207.5 1447 224.8 1438 235.6C1429.2 246.4 1418.8 251.8 1406.8 251.8C1399 251.8 1392.1 249.8 1386.1 245.8C1380.1 241.8 1375 236.2 1370.8 229C1366.6 221.8 1363.4 213.2 1361.2 203.2C1359 193.2 1357.9 182.3 1357.9 170.5C1357.9 158.5 1359 147.3 1361.2 136.9C1363.6 126.3 1366.9 117.1 1371.1 109.3C1375.5 101.5 1380.8 95.4 1387 91C1393.2 86.4 1400.2 84.1 1408 84.1C1415.2 84.1 1421.6 85.9 1427.2 89.5C1432.8 93.1 1437.5 98.2 1441.3 104.8C1445.3 111.4 1448.3 119.3 1450.3 128.5C1452.3 137.7 1453.3 147.9 1453.3 159.1H1375.3V164.8C1375.3 174.6 1376.1 183.9 1377.7 192.7C1379.3 201.3 1381.7 208.9 1384.9 215.5C1388.1 221.9 1391.9 227 1396.3 230.8C1400.9 234.6 1406.2 236.5 1412.2 236.5C1415.6 236.5 1419.1 235.7 1422.7 234.1C1426.3 232.5 1429.7 229.7 1432.9 225.7C1436.3 221.5 1439.3 216 1441.9 209.2C1444.7 202.4 1447 193.9 1448.8 183.7H1455.1ZM1408.3 94.3C1403.5 94.3 1399.2 95.8 1395.4 98.8C1391.6 101.6 1388.4 105.5 1385.8 110.5C1383.2 115.5 1381 121.3 1379.2 127.9C1377.6 134.5 1376.5 141.5 1375.9 148.9H1435.6C1435.6 142.1 1435.1 135.4 1434.1 128.8C1433.1 122.2 1431.5 116.4 1429.3 111.4C1427.3 106.2 1424.5 102.1 1420.9 99.1C1417.5 95.9 1413.3 94.3 1408.3 94.3ZM1539.01 84.1C1543.41 84.1 1546.81 85.2 1549.21 87.4C1551.61 89.6 1552.81 92.4 1552.81 95.8C1552.81 100.2 1551.61 103.6 1549.21 106C1547.01 108.2 1544.61 109.3 1542.01 109.3C1539.81 109.3 1538.11 108.9 1536.91 108.1C1535.71 107.3 1534.41 106.1 1533.01 104.5C1531.41 102.9 1530.11 101.8 1529.11 101.2C1528.11 100.6 1526.81 100.3 1525.21 100.3C1521.81 100.3 1518.11 102.7 1514.11 107.5C1510.11 112.1 1506.11 119.5 1502.11 129.7V217.6C1502.11 222.4 1502.41 226.3 1503.01 229.3C1503.61 232.3 1504.91 234.6 1506.91 236.2C1509.11 237.8 1512.11 238.9 1515.91 239.5C1519.91 240.1 1525.21 240.4 1531.81 240.4V247H1466.41V240.7C1470.61 240.7 1474.01 240.4 1476.61 239.8C1479.21 239.2 1481.21 238.1 1482.61 236.5C1484.01 234.7 1484.91 232.4 1485.31 229.6C1485.71 226.6 1485.91 222.8 1485.91 218.2V118.3C1485.91 111.9 1485.61 107.2 1485.01 104.2C1484.61 101.2 1483.01 99.7 1480.21 99.7C1478.01 99.7 1474.11 100.8 1468.51 103L1466.11 97.3L1498.51 84.1L1502.11 87.4V114.1H1503.01C1507.21 105.7 1512.41 98.6 1518.61 92.8C1524.81 87 1531.61 84.1 1539.01 84.1ZM1621.25 173.5V158.5H1715.75V173.5H1621.25ZM1892.5 13.9C1887.1 13.9 1882.4 15.7 1878.4 19.3C1874.6 22.7 1871.2 27.3 1868.2 33.1C1865.2 38.9 1862.4 45.7 1859.8 53.5C1857.4 61.1 1854.9 69.1 1852.3 77.5L1848.7 89.2H1907.2C1909.6 89.2 1912.2 88.8 1915 88C1917.8 87 1920.2 85.7 1922.2 84.1L1925.5 85.6L1883.5 214.6C1882.9 216.8 1882.2 219.4 1881.4 222.4C1880.6 225.4 1880.2 227.9 1880.2 229.9C1880.2 232.1 1880.6 233.9 1881.4 235.3C1882.2 236.7 1883.8 237.4 1886.2 237.4C1889.2 237.4 1892.3 236.2 1895.5 233.8C1898.7 231.4 1901.9 228.2 1905.1 224.2C1908.3 220.2 1911.3 215.6 1914.1 210.4C1917.1 205 1919.9 199.5 1922.5 193.9H1928.8C1926.2 200.3 1923.1 206.8 1919.5 213.4C1915.9 219.8 1911.9 225.7 1907.5 231.1C1903.3 236.3 1898.8 240.6 1894 244C1889.2 247.2 1884.2 248.8 1879 248.8C1873.2 248.8 1869.1 247.4 1866.7 244.6C1864.3 241.6 1863.1 237.8 1863.1 233.2C1863.1 230.4 1863.5 227.4 1864.3 224.2C1865.1 221 1866 217.7 1867 214.3L1904.8 97H1846.3L1808.8 221.5C1805 234.1 1800.3 246 1794.7 257.2C1789.3 268.4 1783.1 278.1 1776.1 286.3C1768.9 294.5 1761.1 301 1752.7 305.8C1744.1 310.6 1734.7 313 1724.5 313C1718.1 313 1713.9 312.1 1711.9 310.3C1709.9 308.5 1708.9 306.3 1708.9 303.7C1708.9 299.9 1710.4 296.7 1713.4 294.1C1716.4 291.7 1720 290.5 1724.2 290.5C1726.4 290.5 1728.4 290.8 1730.2 291.4C1732 292.2 1733.8 293 1735.6 293.8C1737.2 294.6 1738.9 295.3 1740.7 295.9C1742.5 296.7 1744.5 297.1 1746.7 297.1C1751.1 297.1 1755.2 295.7 1759 292.9C1762.6 290.3 1766.1 286 1769.5 280C1772.7 274.2 1776 266.6 1779.4 257.2C1782.8 247.8 1786.6 236.4 1790.8 223L1828.9 97H1801.3L1803.7 89.2H1831.3L1834.9 77.2C1838.5 64.8 1842.5 54.1 1846.9 45.1C1851.5 35.9 1856.7 28.2 1862.5 22C1868.5 15.8 1875.3 11.2 1882.9 8.19998C1890.5 5.19998 1899.4 3.69999 1909.6 3.69999C1921.2 3.69999 1929.2 5.09999 1933.6 7.89998C1938 10.5 1940.2 13.5 1940.2 16.9C1940.2 19.3 1939.2 21.9 1937.2 24.7C1935.4 27.3 1932.3 28.6 1927.9 28.6C1924.9 28.6 1922.1 27.9 1919.5 26.5C1916.9 24.9 1914.2 23.2 1911.4 21.4C1908.8 19.4 1906 17.7 1903 16.3C1900 14.7 1896.5 13.9 1892.5 13.9ZM1937.34 247L1979.64 124C1981.04 120 1982.34 115.9 1983.54 111.7C1984.94 107.5 1985.64 104.5 1985.64 102.7C1985.64 100.5 1985.24 99 1984.44 98.2C1983.64 97.4 1982.54 97 1981.14 97C1978.54 97 1975.64 98.1 1972.44 100.3C1969.44 102.5 1966.34 105.4 1963.14 109C1960.14 112.6 1957.04 116.6 1953.84 121C1950.84 125.4 1948.04 129.9 1945.44 134.5H1939.14C1942.14 128.5 1945.64 122.6 1949.64 116.8C1953.64 111 1957.84 105.8 1962.24 101.2C1966.84 96.6 1971.54 92.9 1976.34 90.1C1981.14 87.3 1985.94 85.9 1990.74 85.9C1994.74 85.9 1997.64 87.3 1999.44 90.1C2001.44 92.7 2002.44 95.8 2002.44 99.4C2002.44 102.6 2001.74 106.2 2000.34 110.2C1999.14 114.2 1997.64 118.8 1995.84 124L1976.04 178.6H1978.44C1986.64 161.2 1994.24 146.6 2001.24 134.8C2008.44 122.8 2015.14 113.2 2021.34 106C2027.74 98.6 2033.64 93.3 2039.04 90.1C2044.44 86.9 2049.64 85.3 2054.64 85.3C2060.24 85.3 2064.44 87 2067.24 90.4C2070.24 93.6 2071.74 98.1 2071.74 103.9C2071.74 110.1 2070.34 117.6 2067.54 126.4C2064.74 135 2061.24 144.3 2057.04 154.3C2053.04 164.1 2048.64 174.3 2043.84 184.9C2039.04 195.3 2034.64 205.3 2030.64 214.9C2029.84 217.1 2028.94 219.7 2027.94 222.7C2026.94 225.5 2026.44 227.9 2026.44 229.9C2026.44 232.1 2026.84 233.9 2027.64 235.3C2028.44 236.7 2030.04 237.4 2032.44 237.4C2035.44 237.4 2038.54 236.2 2041.74 233.8C2044.94 231.4 2048.14 228.2 2051.34 224.2C2054.54 220.2 2057.54 215.6 2060.34 210.4C2063.34 205 2066.14 199.5 2068.74 193.9H2075.04C2072.44 200.3 2069.34 206.8 2065.74 213.4C2062.14 219.8 2058.14 225.7 2053.74 231.1C2049.54 236.3 2045.04 240.6 2040.24 244C2035.44 247.2 2030.44 248.8 2025.24 248.8C2019.44 248.8 2015.34 247.4 2012.94 244.6C2010.54 241.6 2009.34 237.8 2009.34 233.2C2009.34 230.4 2009.84 227.5 2010.84 224.5C2012.04 221.3 2013.34 218 2014.74 214.6C2018.94 203.8 2023.24 193.1 2027.64 182.5C2032.24 171.7 2036.44 161.7 2040.24 152.5C2044.04 143.1 2047.14 134.7 2049.54 127.3C2051.94 119.9 2053.14 114.2 2053.14 110.2C2053.14 102.8 2050.74 99.1 2045.94 99.1C2042.34 99.1 2037.64 101.6 2031.84 106.6C2026.04 111.4 2019.24 119.6 2011.44 131.2C2003.64 142.6 1994.94 157.8 1985.34 176.8C1975.74 195.6 1965.44 219 1954.44 247H1937.34ZM2118.5 237.7C2123.3 237.7 2128 236.4 2132.6 233.8C2137.2 231 2141.6 227.3 2145.8 222.7C2150.2 217.9 2154.4 212.2 2158.4 205.6C2162.6 199 2166.5 191.8 2170.1 184H2176.1C2172.3 193.8 2168 202.8 2163.2 211C2158.4 219.2 2153.2 226.3 2147.6 232.3C2142.2 238.1 2136.4 242.7 2130.2 246.1C2124.2 249.3 2117.9 250.9 2111.3 250.9C2101.3 250.9 2093.5 247.3 2087.9 240.1C2082.3 232.9 2079.5 222.9 2079.5 210.1C2079.5 202.1 2080.6 193.5 2082.8 184.3C2085 174.9 2088 165.6 2091.8 156.4C2095.6 147.2 2100.1 138.3 2105.3 129.7C2110.5 121.1 2116.1 113.5 2122.1 106.9C2128.3 100.3 2134.8 95.1 2141.6 91.3C2148.4 87.3 2155.3 85.3 2162.3 85.3C2169.3 85.3 2174.8 87.5 2178.8 91.9C2183 96.3 2185.1 102 2185.1 109C2185.1 116.8 2182.7 124.6 2177.9 132.4C2173.3 140 2167.1 147.1 2159.3 153.7C2151.5 160.1 2142.6 165.6 2132.6 170.2C2122.6 174.8 2112.3 178 2101.7 179.8C2098.9 191 2097.5 200.9 2097.5 209.5C2097.5 218.7 2099.4 225.7 2103.2 230.5C2107 235.3 2112.1 237.7 2118.5 237.7ZM2159.6 94.6C2153.8 94.6 2148.1 96.9 2142.5 101.5C2137.1 105.9 2131.9 111.8 2126.9 119.2C2122.1 126.4 2117.7 134.6 2113.7 143.8C2109.7 153 2106.4 162.2 2103.8 171.4C2112.6 169.4 2121 166.5 2129 162.7C2137 158.7 2144.1 154 2150.3 148.6C2156.5 143 2161.4 136.9 2165 130.3C2168.6 123.5 2170.4 116.4 2170.4 109C2170.4 104.6 2169.6 101.1 2168 98.5C2166.6 95.9 2163.8 94.6 2159.6 94.6ZM2263.81 212.8C2263.01 215.4 2262.21 218.2 2261.41 221.2C2260.61 224.2 2260.21 226.8 2260.21 229C2260.21 231.4 2260.61 233.3 2261.41 234.7C2262.21 236.1 2263.91 236.8 2266.51 236.8C2270.11 236.8 2273.81 235.5 2277.61 232.9C2281.61 230.3 2285.51 226.8 2289.31 222.4C2293.31 218 2297.11 212.9 2300.71 207.1C2304.31 201.3 2307.61 195.2 2310.61 188.8H2317.21C2314.21 196.2 2310.51 203.5 2306.11 210.7C2301.71 217.9 2296.91 224.3 2291.71 229.9C2286.71 235.5 2281.31 240.1 2275.51 243.7C2269.91 247.1 2264.21 248.8 2258.41 248.8C2252.61 248.8 2248.51 247.4 2246.11 244.6C2243.91 241.6 2242.81 237.7 2242.81 232.9C2242.81 230.1 2243.21 227 2244.01 223.6C2245.01 220 2246.01 216.6 2247.01 213.4L2286.91 97H2263.21L2265.61 91.3C2272.01 91.1 2277.51 90.2 2282.11 88.6C2286.71 87 2290.71 84.6 2294.11 81.4C2297.71 78.2 2300.91 74.2 2303.71 69.4C2306.71 64.6 2309.71 59 2312.71 52.6H2319.61L2306.11 89.2H2336.11L2333.71 97H2303.71L2263.81 212.8ZM2358.6 237.7C2363.4 237.7 2368.1 236.4 2372.7 233.8C2377.3 231 2381.7 227.3 2385.9 222.7C2390.3 217.9 2394.5 212.2 2398.5 205.6C2402.7 199 2406.6 191.8 2410.2 184H2416.2C2412.4 193.8 2408.1 202.8 2403.3 211C2398.5 219.2 2393.3 226.3 2387.7 232.3C2382.3 238.1 2376.5 242.7 2370.3 246.1C2364.3 249.3 2358 250.9 2351.4 250.9C2341.4 250.9 2333.6 247.3 2328 240.1C2322.4 232.9 2319.6 222.9 2319.6 210.1C2319.6 202.1 2320.7 193.5 2322.9 184.3C2325.1 174.9 2328.1 165.6 2331.9 156.4C2335.7 147.2 2340.2 138.3 2345.4 129.7C2350.6 121.1 2356.2 113.5 2362.2 106.9C2368.4 100.3 2374.9 95.1 2381.7 91.3C2388.5 87.3 2395.4 85.3 2402.4 85.3C2409.4 85.3 2414.9 87.5 2418.9 91.9C2423.1 96.3 2425.2 102 2425.2 109C2425.2 116.8 2422.8 124.6 2418 132.4C2413.4 140 2407.2 147.1 2399.4 153.7C2391.6 160.1 2382.7 165.6 2372.7 170.2C2362.7 174.8 2352.4 178 2341.8 179.8C2339 191 2337.6 200.9 2337.6 209.5C2337.6 218.7 2339.5 225.7 2343.3 230.5C2347.1 235.3 2352.2 237.7 2358.6 237.7ZM2399.7 94.6C2393.9 94.6 2388.2 96.9 2382.6 101.5C2377.2 105.9 2372 111.8 2367 119.2C2362.2 126.4 2357.8 134.6 2353.8 143.8C2349.8 153 2346.5 162.2 2343.9 171.4C2352.7 169.4 2361.1 166.5 2369.1 162.7C2377.1 158.7 2384.2 154 2390.4 148.6C2396.6 143 2401.5 136.9 2405.1 130.3C2408.7 123.5 2410.5 116.4 2410.5 109C2410.5 104.6 2409.7 101.1 2408.1 98.5C2406.7 95.9 2403.9 94.6 2399.7 94.6ZM2518.85 237.4C2521.85 237.4 2524.95 236.2 2528.15 233.8C2531.35 231.4 2534.45 228.2 2537.45 224.2C2540.65 220.2 2543.75 215.6 2546.75 210.4C2549.75 205 2552.55 199.5 2555.15 193.9H2561.45C2558.85 200.3 2555.75 206.8 2552.15 213.4C2548.55 219.8 2544.55 225.7 2540.15 231.1C2535.75 236.3 2531.15 240.6 2526.35 244C2521.55 247.2 2516.55 248.8 2511.35 248.8C2505.55 248.8 2501.45 247.4 2499.05 244.6C2496.65 241.6 2495.45 237.8 2495.45 233.2C2495.45 230.4 2496.05 227.5 2497.25 224.5C2498.45 221.3 2499.65 218 2500.85 214.6L2517.95 167.5H2515.25C2511.65 175.5 2507.05 184.3 2501.45 193.9C2496.05 203.3 2490.25 212.2 2484.05 220.6C2477.85 228.8 2471.35 235.7 2464.55 241.3C2457.95 246.9 2451.65 249.7 2445.65 249.7C2437.05 249.7 2431.05 246.5 2427.65 240.1C2424.25 233.5 2422.55 225.1 2422.55 214.9C2422.55 206.3 2423.75 197.2 2426.15 187.6C2428.75 177.8 2432.15 168.1 2436.35 158.5C2440.75 148.9 2445.75 139.7 2451.35 130.9C2457.15 122.1 2463.25 114.3 2469.65 107.5C2476.25 100.7 2482.95 95.3 2489.75 91.3C2496.75 87.3 2503.55 85.3 2510.15 85.3C2519.15 85.3 2525.65 88.3 2529.65 94.3C2533.85 100.1 2535.55 108 2534.75 118H2535.65L2544.65 93.1C2548.05 93.1 2551.15 92.3 2553.95 90.7C2556.95 88.9 2559.25 86.7 2560.85 84.1L2564.15 85.6L2517.05 214.9C2516.25 217.1 2515.35 219.7 2514.35 222.7C2513.35 225.5 2512.85 227.9 2512.85 229.9C2512.85 232.1 2513.25 233.9 2514.05 235.3C2514.85 236.7 2516.45 237.4 2518.85 237.4ZM2450.75 235.3C2455.75 235.3 2461.45 232.4 2467.85 226.6C2474.45 220.8 2480.95 213.6 2487.35 205C2493.95 196.2 2499.95 186.8 2505.35 176.8C2510.95 166.8 2515.25 157.6 2518.25 149.2C2519.85 144.6 2521.35 139.7 2522.75 134.5C2524.35 129.1 2525.15 123.4 2525.15 117.4C2525.15 111 2524.05 105.9 2521.85 102.1C2519.65 98.3 2515.85 96.4 2510.45 96.4C2505.25 96.4 2499.95 98.2 2494.55 101.8C2489.15 105.4 2483.85 110.2 2478.65 116.2C2473.45 122.2 2468.45 129.2 2463.65 137.2C2459.05 145 2454.95 153.3 2451.35 162.1C2447.95 170.7 2445.25 179.4 2443.25 188.2C2441.25 196.8 2440.25 205 2440.25 212.8C2440.25 220 2440.95 225.6 2442.35 229.6C2443.95 233.4 2446.75 235.3 2450.75 235.3ZM2742.47 215.2C2742.47 220.2 2742.07 225 2741.27 229.6C2740.47 234 2739.27 237.9 2737.67 241.3C2736.07 244.5 2733.87 247 2731.07 248.8C2728.27 250.8 2724.87 251.8 2720.87 251.8C2714.07 251.8 2708.77 249.1 2704.97 243.7C2701.37 238.3 2699.57 230 2699.57 218.8V206.8C2695.57 221.8 2689.87 233.1 2682.47 240.7C2675.07 248.1 2666.47 251.8 2656.67 251.8C2651.67 251.8 2647.27 250.8 2643.47 248.8C2639.67 247 2636.47 244.6 2633.87 241.6C2631.27 238.4 2629.27 234.7 2627.87 230.5C2626.67 226.3 2626.07 221.8 2626.07 217C2626.07 207.6 2628.37 199.4 2632.97 192.4C2637.57 185.4 2643.37 179.2 2650.37 173.8C2657.57 168.2 2665.47 163.3 2674.07 159.1C2682.87 154.7 2691.37 150.5 2699.57 146.5V129.4C2699.57 116.2 2697.27 107 2692.67 101.8C2688.27 96.6 2682.07 94 2674.07 94C2667.67 94 2662.27 95.5 2657.87 98.5C2653.47 101.5 2651.27 105.8 2651.27 111.4C2651.27 115 2651.97 117.8 2653.37 119.8C2654.77 121.8 2655.47 124.4 2655.47 127.6C2655.47 130.8 2654.57 133.4 2652.77 135.4C2651.17 137.2 2648.67 138.1 2645.27 138.1C2641.27 138.1 2638.17 136.6 2635.97 133.6C2633.97 130.4 2632.97 126.4 2632.97 121.6C2632.97 116.4 2634.07 111.5 2636.27 106.9C2638.47 102.3 2641.57 98.3 2645.57 94.9C2649.57 91.5 2654.27 88.8 2659.67 86.8C2665.07 84.8 2670.87 83.8 2677.07 83.8C2688.27 83.8 2697.57 87.4 2704.97 94.6C2712.37 101.6 2716.07 113.1 2716.07 129.1V221.2C2716.07 229.4 2716.87 234.8 2718.47 237.4C2720.27 240 2722.37 241.3 2724.77 241.3C2727.97 241.3 2730.57 239.5 2732.57 235.9C2734.77 232.1 2735.97 225.2 2736.17 215.2H2742.47ZM2661.77 236.5C2668.57 236.5 2675.37 233 2682.17 226C2689.17 219 2694.97 207.3 2699.57 190.9V155.2C2692.77 158.8 2685.97 162.5 2679.17 166.3C2672.57 170.1 2666.57 174.3 2661.17 178.9C2655.97 183.3 2651.67 188.3 2648.27 193.9C2645.07 199.3 2643.47 205.6 2643.47 212.8C2643.47 219.6 2644.97 225.3 2647.97 229.9C2650.97 234.3 2655.57 236.5 2661.77 236.5ZM2819.97 183.1C2819.97 194.1 2819.47 203.9 2818.47 212.5C2817.47 220.9 2815.67 228 2813.07 233.8C2810.67 239.6 2807.27 244 2802.87 247C2798.67 250.2 2793.37 251.8 2786.97 251.8C2781.97 251.8 2777.57 250.9 2773.77 249.1C2769.97 247.3 2766.77 244.3 2764.17 240.1C2761.57 235.9 2759.67 230.4 2758.47 223.6C2757.27 216.8 2756.67 208.4 2756.67 198.4V99.4H2735.07V90.7C2740.47 90.7 2744.97 89.6 2748.57 87.4C2752.37 85.2 2755.47 82.2 2757.87 78.4C2760.27 74.6 2762.07 70 2763.27 64.6C2764.67 59.2 2765.47 53.3 2765.67 46.9H2773.17V89.2H2809.77V99.4H2773.47V187.9C2773.47 195.1 2773.57 201.8 2773.77 208C2774.17 214 2774.97 219.2 2776.17 223.6C2777.37 228 2779.17 231.5 2781.57 234.1C2783.97 236.5 2787.27 237.7 2791.47 237.7C2798.67 237.7 2804.07 233.3 2807.67 224.5C2811.27 215.7 2813.07 201.9 2813.07 183.1H2819.97ZM2927.5 183.7C2925.1 207.5 2919.4 224.8 2910.4 235.6C2901.6 246.4 2891.2 251.8 2879.2 251.8C2871.4 251.8 2864.5 249.8 2858.5 245.8C2852.5 241.8 2847.4 236.2 2843.2 229C2839 221.8 2835.8 213.2 2833.6 203.2C2831.4 193.2 2830.3 182.3 2830.3 170.5C2830.3 158.5 2831.4 147.3 2833.6 136.9C2836 126.3 2839.3 117.1 2843.5 109.3C2847.9 101.5 2853.2 95.4 2859.4 91C2865.6 86.4 2872.6 84.1 2880.4 84.1C2887.6 84.1 2894 85.9 2899.6 89.5C2905.2 93.1 2909.9 98.2 2913.7 104.8C2917.7 111.4 2920.7 119.3 2922.7 128.5C2924.7 137.7 2925.7 147.9 2925.7 159.1H2847.7V164.8C2847.7 174.6 2848.5 183.9 2850.1 192.7C2851.7 201.3 2854.1 208.9 2857.3 215.5C2860.5 221.9 2864.3 227 2868.7 230.8C2873.3 234.6 2878.6 236.5 2884.6 236.5C2888 236.5 2891.5 235.7 2895.1 234.1C2898.7 232.5 2902.1 229.7 2905.3 225.7C2908.7 221.5 2911.7 216 2914.3 209.2C2917.1 202.4 2919.4 193.9 2921.2 183.7H2927.5ZM2880.7 94.3C2875.9 94.3 2871.6 95.8 2867.8 98.8C2864 101.6 2860.8 105.5 2858.2 110.5C2855.6 115.5 2853.4 121.3 2851.6 127.9C2850 134.5 2848.9 141.5 2848.3 148.9H2908C2908 142.1 2907.5 135.4 2906.5 128.8C2905.5 122.2 2903.9 116.4 2901.7 111.4C2899.7 106.2 2896.9 102.1 2893.3 99.1C2889.9 95.9 2885.7 94.3 2880.7 94.3ZM2971.85 218.2C2971.85 222.8 2972.05 226.6 2972.45 229.6C2972.85 232.4 2973.75 234.7 2975.15 236.5C2976.55 238.1 2978.45 239.2 2980.85 239.8C2983.45 240.4 2986.95 240.7 2991.35 240.7V247H2935.25V240.7C2939.65 240.7 2943.15 240.4 2945.75 239.8C2948.35 239.2 2950.35 238.1 2951.75 236.5C2953.15 234.7 2954.05 232.4 2954.45 229.6C2954.85 226.6 2955.05 222.8 2955.05 218.2V35.2C2955.05 29 2954.85 24.5 2954.45 21.7C2954.05 18.7 2952.65 17.2 2950.25 17.2C2948.05 17.2 2943.95 18.6 2937.95 21.4L2935.25 15.4L2968.55 0.699988L2971.85 3.99998V218.2ZM3025.68 48.4C3021.48 48.4 3017.98 47.1 3015.18 44.5C3012.38 41.7 3010.98 38.3 3010.98 34.3C3010.98 30.3 3012.38 27 3015.18 24.4C3017.98 21.6 3021.48 20.2 3025.68 20.2C3029.68 20.2 3033.08 21.6 3035.88 24.4C3038.68 27 3040.08 30.3 3040.08 34.3C3040.08 38.3 3038.68 41.7 3035.88 44.5C3033.08 47.1 3029.68 48.4 3025.68 48.4ZM3036.78 218.2C3036.78 222.8 3036.98 226.6 3037.38 229.6C3037.78 232.4 3038.68 234.7 3040.08 236.5C3041.48 238.1 3043.48 239.2 3046.08 239.8C3048.68 240.4 3052.18 240.7 3056.58 240.7V247H3000.48V240.7C3004.88 240.7 3008.38 240.4 3010.98 239.8C3013.58 239.2 3015.58 238.1 3016.98 236.5C3018.38 234.7 3019.28 232.4 3019.68 229.6C3020.08 226.6 3020.28 222.8 3020.28 218.2V118.3C3020.28 111.7 3019.98 107 3019.38 104.2C3018.98 101.2 3017.38 99.7 3014.58 99.7C3011.98 99.7 3008.28 100.7 3003.48 102.7L3001.08 96.7L3033.18 84.1L3036.78 87.4V218.2ZM3163.8 183.7C3161.4 207.5 3155.7 224.8 3146.7 235.6C3137.9 246.4 3127.5 251.8 3115.5 251.8C3107.7 251.8 3100.8 249.8 3094.8 245.8C3088.8 241.8 3083.7 236.2 3079.5 229C3075.3 221.8 3072.1 213.2 3069.9 203.2C3067.7 193.2 3066.6 182.3 3066.6 170.5C3066.6 158.5 3067.7 147.3 3069.9 136.9C3072.3 126.3 3075.6 117.1 3079.8 109.3C3084.2 101.5 3089.5 95.4 3095.7 91C3101.9 86.4 3108.9 84.1 3116.7 84.1C3123.9 84.1 3130.3 85.9 3135.9 89.5C3141.5 93.1 3146.2 98.2 3150 104.8C3154 111.4 3157 119.3 3159 128.5C3161 137.7 3162 147.9 3162 159.1H3084V164.8C3084 174.6 3084.8 183.9 3086.4 192.7C3088 201.3 3090.4 208.9 3093.6 215.5C3096.8 221.9 3100.6 227 3105 230.8C3109.6 234.6 3114.9 236.5 3120.9 236.5C3124.3 236.5 3127.8 235.7 3131.4 234.1C3135 232.5 3138.4 229.7 3141.6 225.7C3145 221.5 3148 216 3150.6 209.2C3153.4 202.4 3155.7 193.9 3157.5 183.7H3163.8ZM3117 94.3C3112.2 94.3 3107.9 95.8 3104.1 98.8C3100.3 101.6 3097.1 105.5 3094.5 110.5C3091.9 115.5 3089.7 121.3 3087.9 127.9C3086.3 134.5 3085.2 141.5 3084.6 148.9H3144.3C3144.3 142.1 3143.8 135.4 3142.8 128.8C3141.8 122.2 3140.2 116.4 3138 111.4C3136 106.2 3133.2 102.1 3129.6 99.1C3126.2 95.9 3122 94.3 3117 94.3ZM3247.71 84.1C3252.11 84.1 3255.51 85.2 3257.91 87.4C3260.31 89.6 3261.51 92.4 3261.51 95.8C3261.51 100.2 3260.31 103.6 3257.91 106C3255.71 108.2 3253.31 109.3 3250.71 109.3C3248.51 109.3 3246.81 108.9 3245.61 108.1C3244.41 107.3 3243.11 106.1 3241.71 104.5C3240.11 102.9 3238.81 101.8 3237.81 101.2C3236.81 100.6 3235.51 100.3 3233.91 100.3C3230.51 100.3 3226.81 102.7 3222.81 107.5C3218.81 112.1 3214.81 119.5 3210.81 129.7V217.6C3210.81 222.4 3211.11 226.3 3211.71 229.3C3212.31 232.3 3213.61 234.6 3215.61 236.2C3217.81 237.8 3220.81 238.9 3224.61 239.5C3228.61 240.1 3233.91 240.4 3240.51 240.4V247H3175.11V240.7C3179.31 240.7 3182.71 240.4 3185.31 239.8C3187.91 239.2 3189.91 238.1 3191.31 236.5C3192.71 234.7 3193.61 232.4 3194.01 229.6C3194.41 226.6 3194.61 222.8 3194.61 218.2V118.3C3194.61 111.9 3194.31 107.2 3193.71 104.2C3193.31 101.2 3191.71 99.7 3188.91 99.7C3186.71 99.7 3182.81 100.8 3177.21 103L3174.81 97.3L3207.21 84.1L3210.81 87.4V114.1H3211.71C3215.91 105.7 3221.11 98.6 3227.31 92.8C3233.51 87 3240.31 84.1 3247.71 84.1Z" fill="#E7DACC"/>
</svg>
