<svg width="222" height="111" viewBox="0 0 222 111" fill="none" xmlns="http://www.w3.org/2000/svg">
<path d="M222 0H0C0 61.2975 49.6988 111 110.992 111C172.285 111 221.983 61.2975 221.983 0H222Z" fill="#E7DACC"/>
<path d="M92.9742 46.9645C95.2433 46.9645 98.8524 45.018 101.562 42.4357L100.183 46.7004H102.686C109.093 30.3263 114.013 25.0541 116.076 25.0541C116.78 25.0541 117.133 25.5823 117.133 26.6778C117.133 29.0449 113.973 35.6376 111.509 41.9564C111.117 42.9248 110.716 43.8931 110.716 44.6757C110.716 45.9962 111.333 46.9547 113.044 46.9547C114.893 46.9547 117.074 45.3212 118.825 43.1889C119.333 45.7712 120.937 47.2677 123.304 47.2677C127.168 47.2677 130.552 43.1889 132.791 37.4765H131.911C129.808 42.0445 127.128 45.331 124.36 45.331C122.512 45.331 121.289 43.8834 121.289 41.2033C121.289 39.9708 121.505 38.4351 121.906 36.8603C128.136 35.8528 134.112 31.0599 134.112 26.5018C134.112 24.4379 132.84 23.0293 130.777 23.0293C124.673 23.0293 118.658 34.2682 118.658 41.2913C118.658 41.5065 118.658 41.7217 118.678 41.9271C117.162 43.8834 115.333 45.2821 114.101 45.2821C113.396 45.2821 113.22 44.8419 113.22 44.1866C113.22 43.6193 113.611 42.6509 113.836 41.9955C116.164 36.3321 119.852 29.3482 119.852 25.7486C119.852 24.076 118.971 23.0293 117.348 23.0293C114.453 23.0293 110.98 26.5018 106.198 36.6842H105.846L114.365 10.5189L113.836 10.3428C113.181 11.2623 111.421 11.5753 107.645 11.5753L107.381 12.4556C110.628 12.4556 111.069 13.1599 110.413 15.1749L102.237 40.3718C99.7914 43.1106 95.8106 45.2039 94.1577 45.2039C93.4144 45.2039 93.2383 44.7637 93.2383 44.0594C93.2383 43.4041 93.5415 42.4357 93.7665 41.6923L99.6055 24.7411H103.997L104.349 23.5967H99.9576L101.933 18.2364H100.926C99.1654 22.0121 97.8059 23.8119 94.0305 23.8999L93.6784 24.7313H97.1506L91.3115 41.7706C91.0083 42.69 90.6953 43.7856 90.6953 44.6268C90.6953 46.0353 91.3115 46.9547 92.9742 46.9547V46.9645ZM130.376 24.3987C131.608 24.3987 131.96 25.2302 131.96 26.5018C131.96 30.8447 127.353 34.4932 122.219 35.6376C123.754 30.2383 127.001 24.3987 130.385 24.3987H130.376Z" fill="black"/>
<path d="M86.2448 79.7421V60.0423C86.2448 54.9266 84.4158 51.5227 79.9362 51.5227C76.1511 51.5227 73.6277 53.9876 70.9086 57.5187H70.7228V34.6595L70.0871 33.965L67.8179 34.9725L63.0841 37.1831L63.6514 38.3862C67.3094 36.6843 67.1822 37.3787 67.1822 41.2913L67.2409 79.7421C67.2409 83.6547 66.7323 84.4764 63.133 84.4764V85.8066H74.684V84.4764C71.1532 84.4764 70.7033 83.6547 70.7033 79.7421V59.6609C73.168 56.7558 75.623 54.6723 78.655 54.6723C81.1784 54.6723 82.8215 56.3743 82.8215 60.2282V79.7421C82.8215 83.6547 82.3814 84.4764 78.8408 84.4764V85.8066H90.3331V84.4764C86.6751 84.4764 86.2252 83.6547 86.2252 79.7421H86.2448Z" fill="black"/>
<path d="M102.089 51.5224C94.5092 51.5224 90.2253 59.5432 90.2253 69.3246C90.2253 79.1061 95.0863 86.8138 102.089 86.8138C109.601 86.8138 113.895 78.7931 113.895 69.0116C113.895 59.2302 109.034 51.5224 102.089 51.5224ZM102.911 84.6032C96.8468 84.6032 93.8833 75.262 93.8833 66.6739C93.8833 60.2377 96.0937 53.733 101.268 53.733C107.263 53.733 110.237 63.1428 110.237 71.7309C110.237 78.1084 108.026 84.613 102.911 84.613V84.6032Z" fill="black"/>
<path d="M136.37 79.556V52.8526L135.676 52.1582L128.604 54.6231L129.044 55.8849C132.83 54.5644 132.83 55.2491 132.83 59.1714V78.8028C130.688 81.522 127.714 83.7228 124.937 83.7228C122.413 83.7228 121.083 81.8252 121.083 77.9127V52.8429L120.389 52.1484L113.317 54.6133L113.757 55.8751C117.542 54.5546 117.542 55.2393 117.542 59.1617V78.3528C117.542 83.3414 119.44 86.8138 123.538 86.8138C127.391 86.8138 130.668 84.0359 132.624 80.9449L132.81 81.0036L132.937 86.0508L133.759 86.7453L135.656 85.9237L140.644 83.8402L140.136 82.5784C136.282 84.2217 136.351 83.5272 136.351 79.5462L136.37 79.556Z" fill="black"/>
<path d="M156.01 51.5225C152.92 51.5225 150.2 54.3004 148.43 57.8315H148.244V52.2169L147.491 51.5225L140.674 54.3004L141.183 55.5035C144.841 54.0558 144.841 54.7503 144.841 58.7216V79.7419C144.841 83.6545 144.332 84.4761 140.733 84.4761V85.8064H154.494V84.4174C148.939 84.4174 148.244 83.6642 148.244 79.6147V61.118C149.946 56.8925 151.658 54.9264 153.105 54.9264C153.8 54.9264 154.113 55.1807 154.749 55.8067C155.316 56.4425 155.756 56.8142 156.646 56.8142C157.722 56.8142 158.915 55.8067 158.915 53.9776C158.915 52.5299 157.839 51.5127 156.01 51.5127V51.5225Z" fill="black"/>
<path d="M133.847 19.4003C134.287 19.1265 134.541 18.7743 134.541 18.4026C134.541 17.9136 134.219 17.6592 133.71 17.6592C133.368 17.6592 133.104 17.7766 132.712 18.1874L129.358 21.6109H130.287L133.847 19.3906V19.4003Z" fill="black"/>
</svg>
